<svg xmlns="http://www.w3.org/2000/svg" width="800" height="350" viewBox="0 0 800 350" xmlns:xlink="http://www.w3.org/1999/xlink">
 <defs>
  <style type="text/css">
   <![CDATA[
    .fil3 {fill:#9CC0E8}
    .fil2 {fill:#69A0DC}
    .fil0 {fill:#005EC4}
    .fil1 {fill:#61BF1A}
   ]]>
  </style>
 </defs>
  <path class="fil0" d="M140.281 303.148l68.599 0c12.967,0 20.543,-6.977 22.733,-20.849l0 -22.064c-2.19,-12.885 -9.766,-19.293 -22.733,-19.293l-68.599 0 0 62.206zm-38.544 -93.491l116.349 0c34.603,0 51.973,14.611 52.091,43.805l0 38.2c0,29.203 -17.37,43.79 -52.091,43.79l-116.349 0 0 -125.795z"/>
  <polygon class="fil1" points="304.902,209.657 342.593,209.657 369.311,302.092 401.627,217.478 437.368,217.478 469.688,302.092 496.433,209.657 534.132,209.657 493.312,335.452 449.035,335.452 419.336,260.235 389.989,335.452 345.707,335.452 "/>
  <path class="fil0" d="M678.417 308.695c6.25,0 9.375,-3.739 9.375,-11.299 0,-7.149 -3.054,-10.765 -9.203,-10.765l-79.867 0c-19.919,0 -29.879,-13.254 -29.879,-39.781 0,-25.845 9.96,-38.762 29.879,-38.762l94.63 0c15.761,0.271 26.826,14.399 28.648,28.339l-106.766 0c-5.924,0 -8.876,3.402 -8.876,10.236 0,6.973 2.952,10.427 8.876,10.427l78.44 0c20.624,0 30.928,12.916 30.928,38.743 0,27.339 -10.304,40.995 -30.928,40.995l-86.293 0c-18.862,-0.105 -34.91,-5.018 -38.538,-28.133l109.574 0z"/>
  <path class="fil2" d="M400.09 147.837c109.511,0 210.029,13.686 288.78,36.484l0 -29.058 -152.663 -152.763 -424.898 138.431 0.045 43.377c78.753,-22.805 179.246,-36.471 288.736,-36.471z"/>
  <path class="fil0" d="M688.87 184.321l0 -29.058 -152.663 -152.763 0.068 152.667c56.297,6.228 107.939,16.22 152.595,29.154z"/>
  <path class="fil3" d="M400.09 147.837c16.794,0 33.402,0.333 49.728,0.961l-74.614 -74.663 -263.895 85.992 0.045 24.181c78.738,-22.805 179.246,-36.471 288.736,-36.471z"/>
  <path class="fil0" d="M400.09 147.837c16.794,0 33.402,0.333 49.728,0.961l-74.614 -74.663 0.043 73.94c8.215,-0.153 16.502,-0.238 24.843,-0.238z"/>
  <path class="fil0" d="M400.09 157.937c165.698,0 312.016,28.897 399.91,73.02l0 -0.026c-78.148,-49.852 -227.924,-83.574 -399.91,-83.574 -172.112,0 -321.997,33.776 -400.09,83.695 87.869,-44.176 234.275,-73.115 400.09,-73.115z"/>
</svg>