<?xml version="1.0" encoding="UTF-8"?>
<!-- Generator: Adobe Illustrator 20.1.0, SVG Export Plug-In . SVG Version: 6.00 Build 0)  -->
<svg version="1.2" baseProfile="tiny" id="Layer_1" xmlns="http://www.w3.org/2000/svg" xmlns:xlink="http://www.w3.org/1999/xlink" x="0px" y="0px" viewBox="0 0 108.6 164.2" overflow="scroll" xml:space="preserve">
<g>
	<path fill="#FFFFFF" d="M17.3,150.2H8.7L8,153.6h7.9l-0.6,2.8h-8l-0.9,4.2h9l-0.6,2.9H2.5L6,147.3h11.9L17.3,150.2z"/>
	<path fill="#FFFFFF" d="M19.4,163.6h-3.9l7-8.3l-3.3-8h4.1l1.8,5.3l4.1-5.3H33l-6.6,7.8l3.5,8.4h-4.1l-1.9-5.5L19.4,163.6z"/>
	<path fill="#FFFFFF" d="M38.3,157.7h-3.4l-1.2,5.8h-3.4l3.5-16.2h7.1c1.6,0,2.8,0.4,3.6,1.3c0.8,0.8,1,2.1,0.6,3.9   c-0.4,1.9-1.2,3.3-2.3,4.1C41.6,157.3,40.1,157.7,38.3,157.7z M39.6,150.2h-3.2l-1,4.8h3.2c0.8,0,1.5-0.2,2-0.6   c0.5-0.4,0.9-1,1.1-1.9c0.2-0.8,0.1-1.4-0.3-1.8C41,150.3,40.4,150.2,39.6,150.2z"/>
	<path fill="#FFFFFF" d="M60.6,148.9c0.3,0.4,0.4,0.9,0.5,1.4s0.1,1.1-0.1,1.7c-0.2,0.8-0.5,1.5-1.1,2.3c-0.5,0.7-1.3,1.3-2.3,1.6   c0.7,0.3,1.1,0.7,1.3,1.3s0.2,1.4-0.1,2.5l-0.2,1.1c-0.2,0.7-0.2,1.2-0.2,1.5c0,0.4,0.1,0.7,0.4,0.9l-0.1,0.4H55c0-0.4,0-0.6,0-0.9   c0-0.5,0.1-0.9,0.2-1.4l0.3-1.5c0.2-1,0.2-1.7-0.1-2.1c-0.3-0.3-0.9-0.5-1.9-0.5H50l-1.3,6.4h-3.3l3.4-16.2h8c1.1,0,2,0.2,2.5,0.4   C59.8,148,60.2,148.4,60.6,148.9z M51.5,150.2l-0.9,4.4h3.8c0.8,0,1.4-0.1,1.8-0.3c0.7-0.3,1.2-0.9,1.4-1.8c0.2-1,0-1.6-0.6-2   c-0.3-0.2-0.9-0.3-1.6-0.3L51.5,150.2L51.5,150.2z"/>
	<path fill="#FFFFFF" d="M76.4,150.2h-8.6l-0.7,3.4H75l-0.6,2.8h-7.9l-0.9,4.2h9l-0.6,2.9H61.6l3.4-16.2h12L76.4,150.2z"/>
	<path fill="#FFFFFF" d="M80.1,158.6c-0.1,0.7,0,1.3,0.3,1.7c0.4,0.7,1.3,1,2.6,1c0.8,0,1.5-0.1,2-0.3c1-0.3,1.6-1,1.8-1.9   c0.1-0.5,0-1-0.4-1.2c-0.4-0.3-1.1-0.5-2-0.8l-1.6-0.4c-1.6-0.4-2.7-0.8-3.2-1.2c-0.9-0.7-1.2-1.9-0.9-3.5c0.3-1.5,1.1-2.7,2.4-3.6   c1.3-1,2.9-1.4,5-1.4c1.7,0,3.1,0.5,4.1,1.4s1.4,2.2,1.1,3.9H88c0.2-1-0.1-1.7-0.8-2.1c-0.5-0.3-1.1-0.4-1.9-0.4   c-0.9,0-1.6,0.2-2.2,0.5c-0.6,0.4-1,0.8-1.1,1.5c-0.1,0.6,0,1,0.5,1.3c0.3,0.2,0.9,0.4,2,0.7l2.7,0.7c1.2,0.3,2,0.7,2.5,1.2   c0.8,0.8,1.1,1.9,0.8,3.3c-0.3,1.5-1.1,2.7-2.5,3.7c-1.3,1-3.1,1.5-5.1,1.5c-2.1,0-3.7-0.5-4.7-1.4c-1-1-1.3-2.3-1-4h2.9V158.6z"/>
	<path fill="#FFFFFF" d="M95.1,158.6c-0.1,0.7,0,1.3,0.3,1.7c0.4,0.7,1.3,1,2.6,1c0.8,0,1.5-0.1,2-0.3c1-0.3,1.6-1,1.8-1.9   c0.1-0.5,0-1-0.4-1.2c-0.4-0.3-1.1-0.5-2.1-0.8l-1.6-0.4c-1.6-0.4-2.7-0.8-3.2-1.2c-0.9-0.7-1.2-1.9-0.9-3.5   c0.3-1.5,1.1-2.7,2.4-3.6c1.3-1,2.9-1.4,5-1.4c1.7,0,3.1,0.5,4.1,1.4s1.4,2.2,1.1,3.9h-3.3c0.2-1-0.1-1.7-0.8-2.1   c-0.5-0.3-1.1-0.4-1.9-0.4c-0.9,0-1.6,0.2-2.2,0.5c-0.6,0.4-1,0.8-1.1,1.5c-0.1,0.6,0,1,0.5,1.3c0.3,0.2,0.9,0.4,2,0.7l2.7,0.7   c1.2,0.3,2,0.7,2.5,1.2c0.8,0.8,1.1,1.9,0.7,3.3c-0.3,1.5-1.1,2.7-2.5,3.7c-1.3,1-3.1,1.5-5.1,1.5c-2.1,0-3.7-0.5-4.7-1.4   c-1-1-1.3-2.3-1-4h3.1V158.6z"/>
</g>
<g>
	<path fill="#FFFFFF" d="M14.8,131.8V127h11.8v14.4c-2.1,0.7-4.2,1.1-6.5,1.3c-1.4,0.1-2.8,0.3-6.6,0.3C7.8,143,0,139.5,0,128   c0-11.4,7.8-15,13.5-15c8.3,0,13.5,2.5,13.5,9.4h-6.6c0-3.7-2.4-4.9-5.8-4.9c-5.5,0-8.1,4-8.1,10.5s2.6,10.5,8.1,10.5   c2.5,0,4.1-0.3,5.7-0.6v-6.1L14.8,131.8L14.8,131.8z"/>
	<path fill="#FFFFFF" d="M29.2,142.3l10.4-28.8h7.3l10,28.8h-6.2l-2.1-6.1H37.3l-2.2,6.1H29.2z M47.1,131.5l-3.9-12.3h-0.1   l-4.2,12.3H47.1z"/>
	<path fill="#FFFFFF" d="M60.8,142.3v-28.8h8.9c6.4,0,11.8,1.6,11.8,8.8c0,5.2-3.5,8.6-10,8.8H67v11.1L60.8,142.3L60.8,142.3z    M67,126.5c3.4-0.2,7.9,1,7.9-4.1s-4.5-3.9-7.9-4.1V126.5z"/>
	<path fill="#FFFFFF" d="M86,142.3v-28.8h8.9c6.4,0,11.8,1.6,11.8,8.8c0,5.2-3.5,8.6-10,8.8h-4.5v11.1L86,142.3L86,142.3z    M92.1,126.5c3.4-0.2,7.9,1,7.9-4.1s-4.5-3.9-7.9-4.1V126.5z"/>
</g>
<path fill="#FFFFFF" d="M0,0v108.6h108.6V0H0z M96.4,51.1v1.2c0,6.7-0.8,12.9-2.3,18.4c-1.5,5.6-4,10.4-7.3,14.4s-7.6,7.1-12.8,9.3  c-5.2,2.1-11.4,3.2-18.6,3.2c-6,0-11.6-1.1-16.8-3.4c-5.2-2.3-9.8-5.4-13.7-9.3c-3.9-3.9-7-8.5-9.3-13.7c-2.2-5.2-3.4-10.9-3.4-16.8  c0-5.9,1.1-11.5,3.4-16.7c2.3-5.2,5.4-9.8,9.3-13.7c3.9-3.9,8.5-7,13.7-9.3c5.2-2.2,10.9-3.4,16.8-3.4c4.9,0,9.5,0.7,13.7,2.1  c4.2,1.4,8,3.3,11.4,5.8c0.2,0.2,0.5,0.4,0.8,0.6l1.4-1.4l2.1-2.1v2.9v14v1.2h-1.2h-14h-2.9l2.1-2.1l1.2-1.2  c-0.4-0.2-0.8-0.5-1.2-0.7c-2-1.1-4.1-1.9-6.4-2.5c-2.3-0.6-4.6-0.9-6.9-0.9c-3.8,0-7.3,0.8-10.6,2.2c-3.3,1.4-6.2,3.4-8.7,5.8  c-2.5,2.4-4.5,5.3-5.9,8.6c-1.5,3.2-2.2,6.8-2.2,10.4c0,3.7,0.7,7.2,2.2,10.3c1.4,3.2,3.4,6.1,5.9,8.5s5.4,4.4,8.7,5.9  c3.3,1.4,6.9,2.2,10.6,2.3c0.5,0,0.9,0,1.4,0c6.1,0,11.1-1.3,14.9-4c3.7-2.6,6-6.1,7-10.8H65.5v2.1v2.9l-2.1-2.1l-9.9-9.9l-0.8-0.8  l0.8-0.8l9.9-9.9l2.1-2.1v2.9v2h29.8l1.1,0V51.1z"/>
</svg>